# xmcd
#
# Track frame offsets:
#	150
#	19200
#	37187
#
# Disc length: 736 seconds
#
# Revision: 0
# Processed by: cddbd v1.4PL0 Copyright (c) Steve Scherf et al.
# Submitted via: audiograbber 1.80
#
DISCID=2102de03
DTITLE=Delbert McClinton - Have A Little Faith In Me  (single)
DYEAR=1900
DGENRE=
TTITLE0=Have A Little Faith In Me (Original Version)
TTITLE1=Have A Little Faith In Me  (Was Remix)
TTITLE2=Have A Little Faith In Me (Rock Remix)
EXTD=
EXTT0=
EXTT1=
EXTT2=
PLAYORDER=
